<svg height="25.664572mm" viewBox="0 0 17.862219 25.664572" width="17.862219mm" xmlns="http://www.w3.org/2000/svg"><g stroke="#000" stroke-linecap="round" stroke-linejoin="round" stroke-width=".264583"><g transform="translate(-6.466822 -1.137711)"><g><path d="m19.797341 16.51-4.399409-2.54-4.399409 2.54 4.399409 2.54z" fill="#fff"/><path d="m19.797341 16.51v5.08l-4.399409 2.54v-5.08z" fill="#afe9c6"/><path d="m15.397932 19.05-4.399409-2.54v5.08l4.399409 2.54z" fill="#fff"/></g><g><path d="m15.397932 19.05-4.399409-2.54-4.3994091 2.54 4.3994091 2.54z" fill="#fff"/><path d="m15.397932 19.05v5.08l-4.399409 2.54v-5.08z" fill="#afe9c6"/><path d="m10.998523 21.59-4.3994091-2.54v5.08l4.3994091 2.54z" fill="#fff"/></g><g><path d="m19.797341 11.43-4.399409-2.5399998-4.399409 2.5399998 4.399409 2.54z" fill="#fff"/><path d="m19.797341 11.43v5.08l-4.399409 2.54v-5.08z" fill="#afe9c6"/><path d="m15.397932 13.97-4.399409-2.54v5.08l4.399409 2.54z" fill="#fff"/></g></g><g transform="translate(-2.067413 -3.677711)"><path d="m19.797341 6.3499999-4.399409-2.5399999-4.399409 2.5399999 4.399409 2.5400003z" fill="#fff"/><path d="m19.797341 6.3499999v5.0800001l-4.399409 2.54v-5.0799998z" fill="#afe9c6"/><path d="m15.397932 8.8900002-4.399409-2.5400003v5.0800001l4.399409 2.54z" fill="#fff"/></g><g transform="translate(-6.466822 -1.137711)"><path d="m19.797341 6.3499999-4.399409-2.5399999-4.399409 2.5399999 4.399409 2.5400003z" fill="#fff"/><path d="m19.797341 6.3499999v5.0800001l-4.399409 2.54v-5.0799998z" fill="#afe9c6"/><path d="m15.397932 8.8900002-4.399409-2.5400003v5.0800001l4.399409 2.54z" fill="#fff"/></g></g></svg>